<svg xmlns="http://www.w3.org/2000/svg" xmlns:xlink="http://www.w3.org/1999/xlink" width="40" height="40" viewBox="0 0 40 40">
  <defs>
    <clipPath id="clip-path">
      <rect id="Rectangle_4557" data-name="Rectangle 4557" width="40" height="40" transform="translate(768 108)" fill="#de8080"/>
    </clipPath>
  </defs>
  <g id="Mask_Group_19" data-name="Mask Group 19" transform="translate(-768 -108)" clip-path="url(#clip-path)">
    <g id="Group_15067" data-name="Group 15067" transform="translate(766.759 110.544)">
      <rect id="Rectangle_4554" data-name="Rectangle 4554" width="26.486" height="26.486" rx="7" transform="translate(18.728) rotate(45)" fill="#ffc3d5"/>
      <path id="Path_23701" data-name="Path 23701" d="M3.757,2.766,11.7,1l7.945,1.766a.967.967,0,0,1,.757.944v9.657a5.8,5.8,0,0,1-2.583,4.827L11.7,22.273l-6.119-4.08A5.8,5.8,0,0,1,3,13.367V3.709a.967.967,0,0,1,.757-.944ZM4.934,4.485v8.881a3.868,3.868,0,0,0,1.722,3.218L11.7,19.949l5.046-3.365a3.868,3.868,0,0,0,1.722-3.217V4.485L11.7,2.982ZM11.7,10.669A2.417,2.417,0,1,1,14.12,8.252,2.417,2.417,0,0,1,11.7,10.669ZM7.377,15.5a4.351,4.351,0,0,1,8.65,0Z" transform="translate(19.944 8.366)"/>
    </g>
  </g>
</svg>
