<svg width="24" height="24" viewBox="0 0 24 24" fill="none" xmlns="http://www.w3.org/2000/svg">
    <path d="M22 12C22 6.48 17.52 2 12 2C6.48 2 2 6.48 2 12C2 16.84 5.44 20.87 10 21.8V15H8V12H10V9.5C10 7.57 11.57 6 13.5 6H16V9H14C13.45 9 13 9.45 13 10V12H16V15H13V21.95C18.05 21.45 22 17.19 22 12Z" fill="#1877F2"/>
    <path d="M16 15L13 15L13 21.95C18.05 21.45 22 17.19 22 12C22 6.48 17.52 2 12 2C6.48 2 2 6.48 2 12C2 16.84 5.44 20.87 10 21.8L10 15L8 15L8 12L10 12L10 10C10 8.9 10.9 8 12 8L16 8L16 12L13 12L13 15L16 15Z" fill="#1877F2"/>
    <path d="M13 21.95V15H16V12H13V10C13 9.45 13.45 9 14 9H16V6H13.5C11.57 6 10 7.57 10 9.5V12H8V15H10V21.8C10.65 21.93 11.32 22 12 22C12.35 22 12.69 21.98 13 21.95Z" fill="#1877F2"/>
    <path d="M13 21.95V15H16V12H13V10C13 9.45 13.45 9 14 9H16V6H13.5C11.57 6 10 7.57 10 9.5V12H8V15H10V21.8C10.65 21.93 11.32 22 12 22C12.35 22 12.69 21.98 13 21.95Z" fill="white"/>
</svg>
