<svg xmlns="http://www.w3.org/2000/svg" xmlns:xlink="http://www.w3.org/1999/xlink" width="40" height="40" viewBox="0 0 40 40">
  <defs>
    <clipPath id="clip-path">
      <rect id="Rectangle_4555" data-name="Rectangle 4555" width="40" height="40" transform="translate(524 108)" fill="#de8080"/>
    </clipPath>
  </defs>
  <g id="Mask_Group_17" data-name="Mask Group 17" transform="translate(-524 -108)" clip-path="url(#clip-path)">
    <g id="Group_15065" data-name="Group 15065" transform="translate(517.959 106.478)">
      <path id="Path_23732" data-name="Path 23732" d="M12.8,1.22a2.4,2.4,0,0,1,4.18,0l12.49,22.125a2.4,2.4,0,0,1-2.09,3.58H2.4a2.4,2.4,0,0,1-2.09-3.58Z" transform="matrix(0.574, -0.819, 0.819, 0.574, 0, 24.4)" fill="#acebc7"/>
      <path id="Path_23733" data-name="Path 23733" d="M3.955,10.189V3.933a.978.978,0,0,1,.978-.978H9.821V1h3.91V2.955h4.888a.978.978,0,0,1,.978.978v6.257l1.062.319a.978.978,0,0,1,.667,1.173l-1.482,5.932a4.88,4.88,0,0,1-1.859-.266l1.222-5.232L11.776,9.8l-7.43,2.317,1.222,5.231a4.88,4.88,0,0,1-1.859.267L2.227,11.681a.978.978,0,0,1,.667-1.173ZM5.91,9.6l5.865-1.76L17.641,9.6V4.91H5.91ZM3.955,19.574a5.844,5.844,0,0,0,3.91-1.494,5.865,5.865,0,0,0,7.821,0,5.844,5.844,0,0,0,3.91,1.494h1.955v1.955H19.6a7.784,7.784,0,0,1-3.91-1.046,7.832,7.832,0,0,1-7.821,0,7.784,7.784,0,0,1-3.91,1.046H2V19.574Z" transform="translate(22.139 5.578)"/>
    </g>
  </g>
</svg>
