<svg xmlns="http://www.w3.org/2000/svg" xmlns:xlink="http://www.w3.org/1999/xlink" width="40" height="40" viewBox="0 0 40 40">
  <defs>
    <clipPath id="clip-path">
      <rect id="Rectangle_4558" data-name="Rectangle 4558" width="40" height="40" transform="translate(979 105)" fill="#ffbaba"/>
    </clipPath>
  </defs>
  <g id="Mask_Group_20" data-name="Mask Group 20" transform="translate(-979 -105)" clip-path="url(#clip-path)">
    <g id="Group_15068" data-name="Group 15068" transform="translate(980.546 111.297)">
      <circle id="Ellipse_194" data-name="Ellipse 194" cx="13.703" cy="13.703" r="13.703" fill="#ffd1a5"/>
      <path id="Path_23734" data-name="Path 23734" d="M10.522,1.409a.643.643,0,0,0-.478,0L2.373,4.477l3.09,1.235,7.91-3.163ZM15.1,3.242,7.193,6.4l3.09,1.235,7.91-3.163ZM19.28,5.427,10.926,8.769V18.951l8.355-3.342V5.428ZM9.64,18.953V8.767L1.285,5.427V15.611L9.64,18.953ZM9.567.215A1.928,1.928,0,0,1,11,.215L20.162,3.88a.643.643,0,0,1,.4.6V15.611a1.285,1.285,0,0,1-.808,1.193L10.522,20.5a.643.643,0,0,1-.478,0L.81,16.8A1.285,1.285,0,0,1,0,15.611V4.477a.643.643,0,0,1,.4-.6Z" transform="translate(16.341 3.892)" fill-rule="evenodd"/>
    </g>
  </g>
</svg>
