<svg xmlns="http://www.w3.org/2000/svg" width="66.502" height="53.531" viewBox="0 0 66.502 53.531">
  <g id="Group_15253" data-name="Group 15253" transform="translate(-281 -1134.469)">
    <path id="Path_23822" data-name="Path 23822" d="M30.485,13.115C44.676,17.861,56,12.536,56,28A28,28,0,0,1,0,28C0,12.536,16.295,8.369,30.485,13.115Z" transform="translate(281 1132)" fill="#dec0dc"/>
    <path id="Path_23840" data-name="Path 23840" d="M35.423,4.026a6.033,6.033,0,0,0-5.362,8.886L27.8,15.551a7.985,7.985,0,0,0-8.628-.245L16.305,12.44a6.989,6.989,0,0,0,.879-3.348,7.092,7.092,0,1,0-7.092,7.092,6.988,6.988,0,0,0,3.348-.879l2.865,2.865a7.923,7.923,0,0,0,.849,9.364l-3.429,3.429.051.051a6,6,0,0,0-2.671-.644,6.079,6.079,0,1,0,6.079,6.079,6,6,0,0,0-.644-2.671l.051.051,3.96-3.96A8.041,8.041,0,0,0,30.48,18.647l2.539-2.963a6.016,6.016,0,0,0,2.4.5,6.079,6.079,0,0,0,0-12.158ZM11.106,38.475a2.026,2.026,0,1,1,2.026-2.026A2.026,2.026,0,0,1,11.106,38.475ZM7.053,9.092a3.04,3.04,0,1,1,3.04,3.04A3.043,3.043,0,0,1,7.053,9.092ZM23.264,26.317a4.053,4.053,0,1,1,4.053-4.053A4.057,4.057,0,0,1,23.264,26.317ZM35.423,12.132a2.026,2.026,0,1,1,2.026-2.026A2.026,2.026,0,0,1,35.423,12.132Z" transform="translate(306 1132.469)" fill="#050f1c"/>
  </g>
</svg>
