<svg xmlns="http://www.w3.org/2000/svg" width="74.475" height="48" viewBox="0 0 74.475 48">
  <g id="Group_15254" data-name="Group 15254" transform="translate(-281 -1140)">
    <path id="Path_23822" data-name="Path 23822" d="M30.485,13.115C44.676,17.861,56,12.536,56,28A28,28,0,0,1,0,28C0,12.536,16.295,8.369,30.485,13.115Z" transform="translate(281 1132)" fill="#d6e0bb"/>
    <g id="Group_15288" data-name="Group 15288" transform="translate(315 1140)">
      <path id="Path_23841" data-name="Path 23841" d="M0,0H40.474V40.474H0Z" fill="none"/>
      <path id="Path_23842" data-name="Path 23842" d="M31.617,24.1A13.493,13.493,0,0,0,12.485,7.15L10.812,4.22A16.867,16.867,0,0,1,34.555,25.8L36.818,27.1l-7.024,3.734-.278-7.95,2.1,1.213ZM6.743,13.632A13.493,13.493,0,0,0,25.875,30.581l1.673,2.929A16.867,16.867,0,0,1,3.8,11.934L1.54,10.63,8.564,6.9l.278,7.95-2.1-1.213Zm6.535,8.606h9.275a.843.843,0,0,0,0-1.686H15.807a4.216,4.216,0,1,1,0-8.432h1.686V10.433h3.373V12.12h4.216v3.373H15.807a.843.843,0,0,0,0,1.686h6.746a4.216,4.216,0,0,1,0,8.432H20.866V27.3H17.494V25.611H13.277Z" transform="translate(1.057 1.372)" fill="#050f1c"/>
    </g>
  </g>
</svg>
