<svg xmlns="http://www.w3.org/2000/svg" width="66.995" height="44.738" viewBox="0 0 66.995 44.738">
  <g id="Group_15248" data-name="Group 15248" transform="translate(-287 -1141.463)">
    <path id="Path_23822" data-name="Path 23822" d="M30.485,13.115C44.676,17.861,56,12.536,56,28A28,28,0,0,1,0,28C0,12.536,16.295,8.369,30.485,13.115Z" transform="translate(287 1130.201)" fill="#c8eda3"/>
    <path id="Path_23824" data-name="Path 23824" d="M12.137,2.437a1.219,1.219,0,0,0-.951.458L3.753,12.186h10.87A1.219,1.219,0,0,1,15.842,13.4a3.656,3.656,0,1,0,7.312,0,1.219,1.219,0,0,1,1.219-1.219h10.87L27.808,2.9a1.219,1.219,0,0,0-.951-.458ZM36.4,14.623H25.469a6.093,6.093,0,0,1-11.942,0H2.6l.78,6.244a1.219,1.219,0,0,0,1.214,1.067H34.408a1.219,1.219,0,0,0,1.209-1.067l.777-6.244ZM9.283,1.372A3.656,3.656,0,0,1,12.14,0H26.856a3.656,3.656,0,0,1,2.856,1.372L38.73,12.644a1.219,1.219,0,0,1,.256.912l-.951,7.614a3.656,3.656,0,0,1-3.629,3.2H4.589A3.656,3.656,0,0,1,.96,21.17L.01,13.556a1.219,1.219,0,0,1,.258-.912L9.286,1.372ZM.3,27.224a1.219,1.219,0,0,1,.914-.414h13.4a1.219,1.219,0,0,1,1.219,1.219,3.656,3.656,0,1,0,7.312,0,1.219,1.219,0,0,1,1.219-1.219h13.4a1.219,1.219,0,0,1,1.209,1.37l-.951,7.614A3.656,3.656,0,0,1,34.406,39H4.589a3.656,3.656,0,0,1-3.629-3.2L.01,28.179A1.219,1.219,0,0,1,.3,27.221ZM2.6,29.247l.78,6.244a1.219,1.219,0,0,0,1.211,1.067H34.406a1.219,1.219,0,0,0,1.209-1.067l.78-6.244H25.469a6.093,6.093,0,0,1-11.942,0Z" transform="translate(315 1141.463)" fill="#050f1c" fill-rule="evenodd"/>
  </g>
</svg>
