<svg xmlns="http://www.w3.org/2000/svg" width="79.267" height="46.744" viewBox="0 0 79.267 46.744">
  <g id="Group_15249" data-name="Group 15249" transform="translate(-281 -1141.256)">
    <path id="Path_23822" data-name="Path 23822" d="M30.485,13.115C44.676,17.861,56,12.536,56,28A28,28,0,0,1,0,28C0,12.536,16.295,8.369,30.485,13.115Z" transform="translate(281 1132)" fill="#ffcce0"/>
    <g id="Group_15256" data-name="Group 15256" transform="translate(314.755 1140.26)">
      <path id="Path_23825" data-name="Path 23825" d="M23.453,19.726,15.726,12,8,19.726M15.726,12V29.385" transform="translate(6.526 8.383)" fill="none" stroke="#050f1c" stroke-linecap="round" stroke-linejoin="round" stroke-width="4"/>
      <path id="Path_23826" data-name="Path 23826" d="M38.459,32.726a9.658,9.658,0,0,0-4.617-18.138H31.409a15.453,15.453,0,1,0-26.54,14.1" transform="translate(0)" fill="none" stroke="#050f1c" stroke-linecap="round" stroke-linejoin="round" stroke-width="4"/>
      <path id="Path_23827" data-name="Path 23827" d="M23.453,19.726,15.726,12,8,19.726" transform="translate(6.526 8.383)" fill="none" stroke="#050f1c" stroke-linecap="round" stroke-linejoin="round" stroke-width="4"/>
    </g>
  </g>
</svg>
