<svg xmlns="http://www.w3.org/2000/svg" width="71.389" height="47.719" viewBox="0 0 71.389 47.719">
  <g id="Group_15251" data-name="Group 15251" transform="translate(-281 -1140.281)">
    <path id="Path_23822" data-name="Path 23822" d="M30.485,13.115C44.676,17.861,56,12.536,56,28A28,28,0,0,1,0,28C0,12.536,16.295,8.369,30.485,13.115Z" transform="translate(281 1132)" fill="#9ae3cd"/>
    <path id="Path_23829" data-name="Path 23829" d="M6.341,9.512H33.048a5.341,5.341,0,0,1,5.341,5.341v8.012a5.341,5.341,0,0,1-5.341,5.341H6.341A5.341,5.341,0,0,1,1,22.865V14.853A5.341,5.341,0,0,1,6.341,9.512Zm0,2.671a2.671,2.671,0,0,0-2.671,2.671v8.012a2.671,2.671,0,0,0,2.671,2.671H33.048a2.671,2.671,0,0,0,2.671-2.671V14.853a2.671,2.671,0,0,0-2.671-2.671ZM1,2.835A1.335,1.335,0,0,1,2.335,1.5H37.054a1.335,1.335,0,0,1,0,2.671H2.335A1.335,1.335,0,0,1,1,2.835ZM1,34.883a1.335,1.335,0,0,1,1.335-1.335H37.054a1.335,1.335,0,0,1,0,2.671H2.335A1.335,1.335,0,0,1,1,34.883Z" transform="translate(314 1138.781)" fill="#050f1c" fill-rule="evenodd"/>
    <path id="Path_23830" data-name="Path 23830" d="M322.54,1155.406h6.347" fill="none" stroke="#050f1c" stroke-linecap="round" stroke-width="2"/>
  </g>
</svg>
