<svg xmlns="http://www.w3.org/2000/svg" width="69.706" height="48.917" viewBox="0 0 69.706 48.917">
  <g id="Group_15247" data-name="Group 15247" transform="translate(-281 -1139.083)">
    <path id="Path_23822" data-name="Path 23822" d="M30.485,13.115C44.676,17.861,56,12.536,56,28A28,28,0,0,1,0,28C0,12.536,16.295,8.369,30.485,13.115Z" transform="translate(281 1132)" fill="#b9e1ff"/>
    <path id="Path_23823" data-name="Path 23823" d="M25.72,5.787H6.787V36.081H33.294V13.36H25.72ZM3,3.878A1.884,1.884,0,0,1,4.891,2H27.614l9.467,9.467V37.961a1.893,1.893,0,0,1-1.88,1.907H4.88A1.893,1.893,0,0,1,3,37.989ZM20.04,13.36v7.573h7.573A7.573,7.573,0,1,1,20.04,13.36Z" transform="translate(313.625 1137.083)" fill="#050f1c"/>
  </g>
</svg>
