<svg xmlns="http://www.w3.org/2000/svg" width="67.894" height="53.893" viewBox="0 0 67.894 53.893">
  <g id="Group_15252" data-name="Group 15252" transform="translate(-281 -1134.107)">
    <path id="Path_23822" data-name="Path 23822" d="M30.485,13.115C44.676,17.861,56,12.536,56,28A28,28,0,0,1,0,28C0,12.536,16.295,8.369,30.485,13.115Z" transform="translate(281 1132)" fill="#e3d7c6"/>
    <g id="Group_15287" data-name="Group 15287" transform="translate(307 1134.107)">
      <path id="Path_23838" data-name="Path 23838" d="M0,0H41.893V41.893H0Z" fill="none"/>
      <path id="Path_23839" data-name="Path 23839" d="M2.88,30.414A62.66,62.66,0,0,1,17.771,1.927a1.4,1.4,0,0,1,2.056,0q.435.471.721.794a62.66,62.66,0,0,1,14.17,27.693A76.785,76.785,0,0,1,23.226,31.94L19.58,39.233a.873.873,0,0,1-1.561,0L14.373,31.94A76.836,76.836,0,0,1,2.88,30.414Zm11.692-1.96,2.02.115L18.8,32.985l2.208-4.416,2.02-.115a73.552,73.552,0,0,0,7.378-.792A59.2,59.2,0,0,0,18.8,6.039,59.2,59.2,0,0,0,7.193,27.662,73.038,73.038,0,0,0,14.572,28.454ZM18.8,25.083a5.237,5.237,0,1,1,5.237-5.237A5.237,5.237,0,0,1,18.8,25.083Zm0-3.491a1.746,1.746,0,1,0-1.746-1.746A1.746,1.746,0,0,0,18.8,21.592Z" transform="translate(2.147 1.1)" fill="#050f1c"/>
    </g>
  </g>
</svg>
