<svg xmlns="http://www.w3.org/2000/svg" xmlns:xlink="http://www.w3.org/1999/xlink" width="40" height="40" viewBox="0 0 40 40">
  <defs>
    <clipPath id="clip-path">
      <rect id="Rectangle_4560" data-name="Rectangle 4560" width="40" height="40" transform="translate(1404 104)" fill="#f49f9f"/>
    </clipPath>
  </defs>
  <g id="Mask_Group_22" data-name="Mask Group 22" transform="translate(-1404 -104)" clip-path="url(#clip-path)">
    <g id="Group_15076" data-name="Group 15076" transform="translate(1396.141 99.778)">
      <path id="Polygon_3" data-name="Polygon 3" d="M24.015,2.779a3,3,0,0,1,4.552,2.593l-.036,4.246a3,3,0,0,0,1.493,2.619l3.659,2.126a3,3,0,0,1,0,5.188l-3.659,2.126A3,3,0,0,0,28.531,24.3l.036,4.246a3,3,0,0,1-4.552,2.593l-3.388-2.048a3,3,0,0,0-3.1,0l-3.388,2.048a3,3,0,0,1-4.552-2.593L9.618,24.3a3,3,0,0,0-1.493-2.619L4.466,19.55a3,3,0,0,1,0-5.188l3.659-2.126A3,3,0,0,0,9.618,9.617L9.582,5.371a3,3,0,0,1,4.552-2.593l3.388,2.048a3,3,0,0,0,3.1,0Z" transform="translate(33.038 48.443) rotate(-150)" fill="#c4e098"/>
      <g id="Group_15075" data-name="Group 15075" transform="translate(26.432 19.926)">
        <path id="Path_23707" data-name="Path 23707" d="M1,3H13.48V13.816H1ZM13.48,7.16h3.328l2.5,2.5v4.16H13.48Z" transform="translate(-1 -3)" fill="none" stroke="#000" stroke-linecap="round" stroke-linejoin="round" stroke-width="2"/>
        <ellipse id="Ellipse_192" data-name="Ellipse 192" cx="2.153" cy="2.153" rx="2.153" ry="2.153" transform="translate(1.435 10.67)" fill="none" stroke="#000" stroke-linecap="round" stroke-linejoin="round" stroke-width="2"/>
        <ellipse id="Ellipse_193" data-name="Ellipse 193" cx="2.153" cy="2.153" rx="2.153" ry="2.153" transform="translate(12.199 10.67)" fill="none" stroke="#000" stroke-linecap="round" stroke-linejoin="round" stroke-width="2"/>
      </g>
    </g>
  </g>
</svg>
