<svg width="24" height="24" viewBox="0 0 24 24" fill="none" xmlns="http://www.w3.org/2000/svg">
    <path d="M12 2C6.48 2 2 6.48 2 12C2 13.8778 2.40232 15.6112 3.07871 17.1114L2.05938 21.9453L7.07054 20.9443C8.55226 21.5828 10.2331 22 12 22C17.52 22 22 17.52 22 12C22 6.48 17.52 2 12 2Z" fill="#25D366"/>
    <path fill-rule="evenodd" clip-rule="evenodd" d="M16.7125 14.3232C16.5142 14.224 15.3611 13.6553 15.1795 13.5894C14.9979 13.5236 14.8662 13.4908 14.7344 13.6881C14.6027 13.8855 14.1517 14.4211 14.0366 14.5518C13.9216 14.6826 13.8065 14.6992 13.6083 14.6002C13.41 14.5011 12.6508 14.26 11.7519 13.4555C11.0534 12.8349 10.5934 12.0726 10.4783 11.8752C10.3633 11.6779 10.4657 11.5729 10.5643 11.4767C10.6535 11.3898 10.7621 11.2479 10.8604 11.134C10.9587 11.02 10.9918 10.9376 11.0582 10.8068C11.1245 10.676 11.0913 10.5621 11.0415 10.463C10.9918 10.3639 10.5361 9.21805 10.3711 8.82351C10.2108 8.44084 10.0476 8.49227 9.92567 8.48492C9.81061 8.47801 9.67891 8.47713 9.54714 8.47713C9.41538 8.47713 9.20041 8.52621 9.01875 8.72357C8.8371 8.92094 8.23242 9.48965 8.23242 10.6354C8.23242 11.7812 9.0518 12.894 9.15008 13.0248C9.24836 13.1556 10.5913 15.2133 12.6508 16.1935C13.1018 16.3911 13.4533 16.5056 13.732 16.5935C14.1848 16.7388 14.5976 16.7167 14.9233 16.6661C15.2875 16.6101 16.2447 16.1112 16.4097 15.6504C16.5746 15.1896 16.5746 14.795 16.5249 14.7127C16.4751 14.6304 16.3434 14.5812 16.1451 14.482L16.7125 14.3232ZM12.0407 19.9203H12.037C10.5111 19.9206 9.01656 19.5057 7.72555 18.7322L7.42836 18.5583L4.1834 19.1563L4.79492 15.9915L4.60242 15.6833C3.75318 14.3507 3.2941 12.7822 3.29492 11.1769C3.29746 6.96345 6.7181 3.57944 12.0444 3.57944C14.6266 3.57944 17.037 4.58332 18.841 6.37196C19.7324 7.25312 20.4403 8.30501 20.9202 9.46682C21.4001 10.6286 21.642 11.8784 21.631 13.1399C21.6285 17.3533 18.2078 19.9203 12.0407 19.9203Z" fill="white"/>
</svg>
